<?xml version="1.0" standalone="no"?>
<!DOCTYPE svg PUBLIC "-//W3C//DTD SVG 20010904//EN"
 "http://www.w3.org/TR/2001/REC-SVG-20010904/DTD/svg10.dtd">
<svg version="1.0" xmlns="http://www.w3.org/2000/svg"
 width="252.000000pt" height="252.000000pt" viewBox="0 0 252.000000 252.000000"
 preserveAspectRatio="xMidYMid meet">
<metadata>
Created by potrace 1.11, written by Peter Selinger 2001-2013
</metadata>
<g transform="translate(0.000000,252.000000) scale(0.100000,-0.100000)"
fill="#000000" stroke="none">
<path d="M1533 2475 c-6 -11 -13 -18 -15 -16 -4 5 -78 -32 -78 -39 0 -3 -16
-12 -35 -20 -19 -8 -35 -18 -35 -22 0 -5 -8 -12 -17 -16 -35 -15 -93 -54 -93
-63 0 -5 -6 -9 -12 -9 -7 0 -30 -16 -50 -35 -21 -18 -38 -32 -38 -30 0 2 -13
-8 -29 -23 -70 -65 -96 -87 -103 -84 -5 1 -8 -4 -8 -12 0 -7 -9 -16 -21 -19
-12 -3 -18 -10 -14 -16 3 -6 1 -11 -5 -11 -6 0 -22 -11 -36 -25 -28 -29 -60
-24 -43 6 7 13 6 19 -1 19 -7 0 -8 6 0 19 15 30 -11 33 -37 4 -13 -13 -23 -28
-23 -33 0 -4 -3 -10 -8 -12 -4 -1 -25 -25 -47 -53 -22 -27 -48 -58 -57 -69
-10 -10 -15 -23 -12 -28 3 -4 1 -8 -4 -8 -6 0 -25 -24 -43 -52 -18 -29 -36
-55 -39 -58 -4 -3 -10 -12 -13 -20 -4 -8 -21 -37 -37 -65 -34 -56 -94 -178
-104 -212 -4 -13 -11 -23 -15 -23 -3 0 -7 -8 -8 -17 -1 -10 -9 -38 -18 -63 -9
-25 -18 -52 -20 -60 -2 -8 -8 -33 -13 -55 -39 -147 -46 -355 -16 -475 3 -14 6
-35 7 -47 1 -13 5 -23 9 -23 4 0 8 -10 8 -22 0 -13 9 -42 19 -65 11 -23 17
-44 13 -47 -3 -3 0 -6 6 -6 7 0 11 -3 10 -7 -2 -12 22 -67 33 -74 9 -5 15 -24
18 -51 1 -5 7 -8 14 -8 8 0 14 -6 14 -14 0 -41 183 -226 276 -279 18 -10 41
-23 52 -30 11 -6 22 -12 25 -12 3 -1 19 -7 35 -14 17 -7 37 -14 45 -16 8 -2
17 -4 20 -5 3 -1 8 -2 13 -1 4 0 7 -3 7 -7 0 -5 10 -8 23 -7 12 1 27 -1 32 -5
6 -4 17 -8 25 -8 32 -2 66 -9 78 -16 7 -4 12 -2 12 4 0 7 6 8 18 2 25 -12 146
-7 292 12 19 2 47 9 63 15 15 6 27 8 27 5 0 -4 6 -2 13 3 6 6 20 9 30 8 9 -2
17 1 17 6 0 5 11 9 25 9 14 0 25 5 25 10 0 6 3 9 8 8 13 -4 82 26 82 35 0 4 4
6 8 3 5 -3 18 3 29 14 12 10 24 16 27 13 3 -4 6 -1 6 5 0 7 6 12 13 12 15 0
157 144 157 159 0 6 5 11 10 11 6 0 15 11 20 25 5 14 14 25 20 25 6 0 9 4 6 9
-3 5 4 20 15 35 11 14 18 26 14 26 -3 0 2 11 11 25 8 13 12 30 8 36 -4 8 -3 9
4 5 11 -7 16 7 15 42 -1 6 4 12 10 12 6 0 7 3 4 7 -4 3 -2 12 4 20 6 7 9 13 5
13 -3 0 -1 11 4 24 19 52 35 322 18 332 -3 2 -4 13 -1 23 3 10 0 22 -6 25 -5
4 -8 13 -4 21 3 9 0 21 -6 29 -6 7 -8 16 -4 19 3 4 2 17 -4 30 -10 20 -23 54
-25 67 -3 15 -55 111 -80 147 -15 23 -28 47 -28 53 0 6 -4 8 -10 5 -5 -3 -10
-1 -10 5 0 6 -15 26 -32 45 -18 19 -38 40 -45 47 -7 7 -24 22 -38 33 -14 11
-34 27 -45 35 -10 8 -26 21 -37 27 -77 52 -92 61 -97 55 -3 -3 -6 0 -6 6 0 7
-3 11 -7 10 -5 0 -26 7 -48 17 -82 36 -106 43 -152 47 -7 1 -13 4 -13 7 0 3
-23 7 -52 9 -61 3 -98 9 -106 17 -6 5 -5 72 1 188 1 15 6 27 11 27 4 0 6 6 3
14 -3 8 -3 17 1 20 6 7 11 28 15 63 1 13 5 23 9 23 3 0 10 15 13 33 4 17 11
34 16 37 5 3 10 15 12 25 2 11 15 44 30 72 15 29 26 54 25 55 -1 2 11 22 25
45 15 23 28 48 29 55 2 7 9 18 17 24 7 6 11 19 9 30 -4 19 -4 19 -15 -1z"/>
</g>
</svg>
